<?xml version="1.0" encoding="utf-8"?>
<!-- Generator: Adobe Illustrator 22.0.1, SVG Export Plug-In . SVG Version: 6.00 Build 0)  -->
<svg version="1.1" id="Слой_1" xmlns="http://www.w3.org/2000/svg" xmlns:xlink="http://www.w3.org/1999/xlink" x="0px" y="0px"
	 width="14px" height="14px" viewBox="0 0 14 14" style="enable-background:new 0 0 14 14;" xml:space="preserve">
<style type="text/css">
	.st0{fill:#FFFFFF;}
</style>
<path class="st0" d="M11.6,0.5H2.5c-0.5,0-1,0.2-1.4,0.6C0.7,1.4,0.5,1.9,0.5,2.5v9.1c0,0.5,0.2,1,0.6,1.4c0.4,0.4,0.9,0.6,1.4,0.6
	h4.5V8H5.8V6.1h1.1V4.8c0-0.3,0-0.6,0.1-0.9c0.1-0.3,0.3-0.6,0.5-0.8C7.7,2.9,8,2.8,8.3,2.6c0.3-0.1,0.6-0.1,0.9-0.1l1.7,0v1.9H9.7
	c-0.1,0-0.1,0-0.2,0c-0.1,0-0.1,0.1-0.2,0.1c0,0.1-0.1,0.1-0.1,0.2c0,0.1,0,0.1,0,0.2v1.1h1.7L10.7,8H9.2v5.5h2.4
	c0.5,0,1-0.2,1.4-0.6s0.6-0.9,0.6-1.4V2.5c0-0.5-0.2-1-0.6-1.4C12.6,0.7,12.1,0.5,11.6,0.5z"/>
</svg>
