<?xml version="1.0" encoding="utf-8"?>
<!-- Generator: Adobe Illustrator 22.0.1, SVG Export Plug-In . SVG Version: 6.00 Build 0)  -->
<svg version="1.1" id="social-telegram" xmlns="http://www.w3.org/2000/svg" xmlns:xlink="http://www.w3.org/1999/xlink" x="0px"
	 y="0px" width="14px" height="14px" viewBox="0 0 14 14" style="enable-background:new 0 0 14 14;" xml:space="preserve">
<style type="text/css">
	.st0{fill:#FFFFFF;}
</style>
<path class="st0" d="M12.9,2.3C12.9,2.3,12.8,2.3,12.9,2.3L4.7,5.5c-1.3,0.5-2.5,1-3.8,1.5C0.7,7,0.5,7.1,0.4,7.2
	C0.2,7.3,0.2,7.5,0.3,7.7c0,0.1,0.1,0.1,0.2,0.1C0.5,7.9,0.7,7.9,0.8,8c0.9,0.3,1.8,0.6,2.8,0.9c0.1,0,0.2,0.1,0.2,0.2
	C3.8,9.3,3.9,9.6,4,9.9c0.3,0.9,0.6,1.8,0.9,2.7c0,0.2,0.2,0.3,0.3,0.3c0.2,0,0.5-0.1,0.6-0.3c0.5-0.5,0.9-0.9,1.4-1.4
	c0.1-0.1,0.2-0.1,0.3,0c0,0,0,0,0,0c0.9,0.7,1.9,1.4,2.8,2.1c0.1,0.1,0.3,0.2,0.5,0.2c0.3,0.1,0.5,0,0.7-0.3
	c0.1-0.2,0.1-0.3,0.2-0.5C12.3,9.9,13,6.9,13.6,4c0.1-0.3,0.2-0.7,0.2-1c0.1-0.3-0.2-0.7-0.5-0.7C13.1,2.2,13,2.2,12.9,2.3L12.9,2.3
	z M11.3,4.5c-0.1,0.1-0.2,0.2-0.3,0.3C9.2,6.4,7.5,8,5.7,9.6C5.6,9.7,5.5,9.8,5.5,10c-0.1,0.7-0.1,1.3-0.2,2c0,0,0,0.1,0,0.1
	c-0.1-0.3-0.2-0.5-0.3-0.8c-0.3-0.8-0.5-1.6-0.8-2.4c-0.1-0.1,0-0.2,0.1-0.3c0,0,0,0,0,0c2.2-1.4,4.3-2.7,6.5-4.1
	c0.1-0.1,0.2-0.1,0.4-0.2c0.1,0,0.1,0,0.2,0.1C11.4,4.4,11.4,4.5,11.3,4.5L11.3,4.5z"/>
</svg>
