<?xml version="1.0" encoding="utf-8"?>
<!-- Generator: Adobe Illustrator 22.0.1, SVG Export Plug-In . SVG Version: 6.00 Build 0)  -->
<svg version="1.1" id="Слой_1" xmlns="http://www.w3.org/2000/svg" xmlns:xlink="http://www.w3.org/1999/xlink" x="0px" y="0px"
	 width="14px" height="14px" viewBox="0 0 14 14" style="enable-background:new 0 0 14 14;" xml:space="preserve">
<style type="text/css">
	.st0{fill:#666;}
</style>
<path class="st0" d="M11.3,11.7L11.3,11.7c-0.4,0-0.7-0.2-1-0.4c-0.3-0.2-0.5-0.4-0.7-0.7c-0.1-0.1-0.3-0.3-0.4-0.5
	C9,9.9,8.8,9.8,8.6,9.9c-0.1,0-0.2,0.1-0.3,0.2c-0.1,0.1-0.1,0.3-0.1,0.4c0,0.2,0,0.3,0,0.5c0,0.1,0,0.3-0.1,0.4
	c-0.2,0.2-0.4,0.3-0.7,0.3c-0.4,0-0.7,0-1,0c-0.8-0.1-1.6-0.3-2.2-0.8c-0.5-0.4-1-0.9-1.5-1.5C2.3,8.8,1.9,8.2,1.5,7.6
	C1.1,7,0.8,6.4,0.5,5.7C0.4,5.5,0.3,5.3,0.2,5.1C0.1,4.8,0,4.6,0,4.3c0.2-0.1,0.4-0.2,0.6-0.2c0.2,0,0.5,0,0.7,0c0.2,0,0.5,0,0.7,0
	c0.2,0,0.4,0,0.6,0.1C2.8,4.3,2.9,4.4,3,4.6C3,4.8,3.1,5,3.2,5.1c0.2,0.4,0.3,0.7,0.5,1C3.9,6.4,4.1,6.7,4.3,7
	c0.1,0.1,0.2,0.3,0.3,0.4c0.1,0.2,0.3,0.2,0.5,0.2c0.1,0,0.2-0.2,0.3-0.5c0-0.3,0.1-0.6,0.1-0.8c0-0.3,0-0.6,0-0.9
	c0-0.2,0-0.5-0.1-0.7C5.2,4.6,5.1,4.5,4.9,4.5c-0.1,0-0.3-0.1-0.4-0.2c0.1-0.2,0.4-0.4,0.6-0.4c0.3-0.1,0.7-0.1,1-0.1
	c0.3,0,0.7,0,1.1,0c0.3,0,0.6,0.1,0.8,0.3C8.1,4.4,8.2,4.7,8.1,5c0,0.3-0.1,0.6-0.1,1c0,0.3,0,0.7,0,1c0,0.3,0.1,0.5,0.3,0.7
	c0.2,0,0.3-0.1,0.4-0.2C8.9,7.2,9,7.1,9.1,7c0.2-0.3,0.4-0.6,0.6-0.9c0.2-0.3,0.3-0.6,0.5-1c0.1-0.2,0.2-0.3,0.2-0.5
	c0-0.2,0.2-0.3,0.3-0.4c0.2-0.1,0.5-0.1,0.7-0.1c0.3,0,0.6,0,0.9,0c0.1,0,0.3,0,0.4,0c0.1,0,0.3,0,0.4,0c0.1,0,0.3,0,0.4,0.1
	c0.1,0,0.2,0.1,0.2,0.2c0.1,0.2,0,0.4-0.1,0.6c-0.1,0.2-0.2,0.4-0.3,0.5c-0.2,0.3-0.4,0.6-0.6,0.9c-0.2,0.3-0.4,0.5-0.7,0.9
	c-0.1,0.1-0.2,0.3-0.4,0.5c-0.1,0.2-0.2,0.4-0.2,0.6c0,0.2,0.1,0.3,0.2,0.4C11.9,8.8,12,8.9,12.1,9c0.2,0.2,0.5,0.4,0.7,0.6
	c0.2,0.2,0.4,0.4,0.6,0.7c0.1,0.1,0.2,0.3,0.3,0.4c0.1,0.1,0.2,0.3,0.1,0.4c0,0.2-0.2,0.3-0.4,0.4c-0.2,0.1-0.5,0.1-0.7,0.1
	c-0.3,0-0.6,0-0.8,0C11.7,11.6,11.5,11.6,11.3,11.7z"/>
</svg>
